<svg width="24" height="24" viewBox="0 0 24 24" fill="none" xmlns="http://www.w3.org/2000/svg">
    <path d="M7 18.5V8.5H5V18.5C5 20.1569 6.34314 21.5 8 21.5H15C16.6569 21.5 18 20.1569 18 18.5V8.5H16V18.5C16 19.0522 15.5522 19.5 15 19.5H8C7.44775 19.5 7 19.0522 7 18.5Z" fill="#F9B122"/>
    <path d="M9 17.5V10.5H10V17.5H9Z" fill="#F9B122"/>
    <path d="M11 10.5V17.5H12V10.5H11Z" fill="#F9B122"/>
    <path d="M13 17.5V10.5H14V17.5H13Z" fill="#F9B122"/>
    <path fill-rule="evenodd" clip-rule="evenodd" d="M7.53101 5.5C7.7771 3.52686 9.46021 2 11.5 2C13.5398 2 15.2229 3.52686 15.469 5.5H19C19.5522 5.5 20 5.94775 20 6.5C20 7.05225 19.5522 7.5 19 7.5H4C3.44775 7.5 3 7.05225 3 6.5C3 5.94775 3.44775 5.5 4 5.5H7.53101ZM8.5415 5.5C8.77954 4.08118 10.0135 3 11.5 3C12.9865 3 14.2205 4.08118 14.4585 5.5H8.5415Z" fill="black"/>
</svg>
