<svg width="18" height="8" viewBox="0 0 18 8" fill="none" xmlns="http://www.w3.org/2000/svg">
  <path d="M7.2887 4.80847C7.84271 4.93079 8.41486 5 9 5C9.58496 5 10.1569 4.93079 10.7108 4.80859L11.5189 7.63721L12.4805 7.36243L11.6739 4.53943C12.895 4.1272 14.0046 3.48572 14.9415 2.8136L16.584 5.27734L17.416 4.72266L15.7375 2.20483C17.1453 1.06055 18 0 18 0H16.6569L16.5972 0.0620117L16.5755 0.0843506C16.1452 0.527344 15.5223 1.11792 14.7551 1.70667C13.1968 2.90271 11.1624 4 9 4C6.83765 4 4.80322 2.90271 3.24487 1.70667C2.47766 1.11792 1.8548 0.527344 1.4245 0.0843506L1.38153 0.0401611L1.34308 0H0C0 0 0.854736 1.06055 2.26251 2.20483L0.583984 4.72266L1.41602 5.27734L3.05847 2.8136C3.99524 3.4856 5.10474 4.12695 6.32556 4.53918L5.51892 7.36243L6.48047 7.63721L7.2887 4.80847Z" fill="black"/>
</svg>
