<svg width="18" height="13" viewBox="0 0 18 13" fill="none" xmlns="http://www.w3.org/2000/svg">
  <path d="M11 7.63721C11.3597 7.63721 11.6972 7.54227 11.9888 7.37608C11.9962 7.46213 12 7.54923 12 7.63721C12 9.29406 10.6569 10.6372 9 10.6372C7.34315 10.6372 6 9.29406 6 7.63721C6 5.98035 7.34315 4.63721 9 4.63721C9.08798 4.63721 9.17507 4.64099 9.26113 4.64841C9.09494 4.94004 9 5.27754 9 5.63721C9 6.74178 9.89543 7.63721 11 7.63721Z" fill="black"/>
  <path fill-rule="evenodd" clip-rule="evenodd" d="M6.48106 0L7.28924 2.82866C7.8431 2.70646 8.41504 2.63721 9 2.63721C9.58516 2.63721 10.1573 2.7065 10.7113 2.82878L11.5195 0L12.4811 0.274721L11.6744 3.09799C12.8953 3.51018 14.0047 4.15152 14.9415 4.82359L16.584 2.35986L17.416 2.91456L15.7375 5.43234C17.1453 6.5766 18 7.63721 18 7.63721C18 7.63721 13.9706 12.6372 9 12.6372C4.02944 12.6372 0 7.63721 0 7.63721C0 7.63721 0.854738 6.57659 2.26249 5.43233L0.583984 2.91456L1.41603 2.35986L3.05851 4.82358C3.99544 4.15142 5.10508 3.50999 6.32613 3.09781L5.51953 0.274721L6.48106 0ZM1.42449 7.72162C1.39651 7.69282 1.36937 7.66467 1.34308 7.63721C1.36937 7.60975 1.39651 7.5816 1.42449 7.5528C1.85481 7.10989 2.47768 6.51932 3.24488 5.9305C4.80324 4.73447 6.83766 3.63721 9 3.63721C11.1623 3.63721 13.1968 4.73447 14.7551 5.9305C15.5223 6.51932 16.1452 7.10989 16.5755 7.5528C16.6035 7.5816 16.6306 7.60975 16.6569 7.63721C16.6306 7.66467 16.6035 7.69282 16.5755 7.72162C16.1452 8.16452 15.5223 8.75509 14.7551 9.34392C13.1968 10.5399 11.1623 11.6372 9 11.6372C6.83766 11.6372 4.80324 10.5399 3.24488 9.34392C2.47768 8.75509 1.85481 8.16452 1.42449 7.72162Z" fill="black"/>
</svg>
